HIERARCHY
ROOT Hips
{
	OFFSET 0.000000 0.000000 0.000000
	CHANNELS 6 Xposition Yposition Zposition Yrotation Xrotation Zrotation
	JOINT Chest
	{
		OFFSET 0.000000 -0.009282 11.569106
		CHANNELS 6 Xposition Yposition Zposition Yrotation Xrotation Zrotation
		JOINT Chest2
		{
			OFFSET -0.000000 0.016863 9.269641
			CHANNELS 6 Xposition Yposition Zposition Yrotation Xrotation Zrotation
			JOINT Chest3
			{
				OFFSET -0.000000 0.000000 8.374491
				CHANNELS 6 Xposition Yposition Zposition Yrotation Xrotation Zrotation
				JOINT Chest4
				{
					OFFSET -0.000000 0.000000 8.374493
					CHANNELS 6 Xposition Yposition Zposition Yrotation Xrotation Zrotation
					JOINT Neck
					{
						OFFSET -0.000000 0.000001 12.152554
						CHANNELS 6 Xposition Yposition Zposition Yrotation Xrotation Zrotation
						JOINT Head
						{
							OFFSET -0.000000 0.040100 7.802319
							CHANNELS 6 Xposition Yposition Zposition Yrotation Xrotation Zrotation
							End Site
							{
								OFFSET -0.000000 0.020946 14.853096
							}
						}
					}
					JOINT RightCollar
					{
						OFFSET 2.894404 0.000001 6.791374
						CHANNELS 6 Xposition Yposition Zposition Yrotation Xrotation Zrotation
						JOINT RightShoulder
						{
							OFFSET 13.574684 0.000001 0.000000
							CHANNELS 6 Xposition Yposition Zposition Yrotation Xrotation Zrotation
							JOINT RightElbow
							{
								OFFSET 23.923903 0.000002 0.000000
								CHANNELS 6 Xposition Yposition Zposition Yrotation Xrotation Zrotation
								JOINT RightWrist
								{
									OFFSET 19.846718 0.012767 0.000000
									CHANNELS 6 Xposition Yposition Zposition Yrotation Xrotation Zrotation
									End Site
									{
										OFFSET 14.973145 0.000001 0.000000
									}
								}
							}
						}
					}
					JOINT LeftCollar
					{
						OFFSET -2.894404 0.000000 6.791374
						CHANNELS 6 Xposition Yposition Zposition Yrotation Xrotation Zrotation
						JOINT LeftShoulder
						{
							OFFSET -13.574684 -0.000001 0.000000
							CHANNELS 6 Xposition Yposition Zposition Yrotation Xrotation Zrotation
							JOINT LeftElbow
							{
								OFFSET -23.923903 -0.000002 0.000000
								CHANNELS 6 Xposition Yposition Zposition Yrotation Xrotation Zrotation
								JOINT LeftWrist
								{
									OFFSET -19.846718 0.012763 0.000000
									CHANNELS 6 Xposition Yposition Zposition Yrotation Xrotation Zrotation
									End Site
									{
										OFFSET -14.973145 -0.000001 0.000000
									}
								}
							}
						}
					}
				}
			}
		}
	}
	JOINT RightHip
	{
		OFFSET 9.469263 0.004643 0.045487
		CHANNELS 6 Xposition Yposition Zposition Yrotation Xrotation Zrotation
		JOINT RightKnee
		{
			OFFSET 0.000000 0.002666 -40.478676
			CHANNELS 6 Xposition Yposition Zposition Yrotation Xrotation Zrotation
			JOINT RightAnkle
			{
				OFFSET 0.000000 0.049110 -35.224068
				CHANNELS 6 Xposition Yposition Zposition Yrotation Xrotation Zrotation
				JOINT RightToe
				{
					OFFSET -0.000001 12.539530 -6.151390
					CHANNELS 6 Xposition Yposition Zposition Yrotation Xrotation Zrotation
					End Site
					{
						OFFSET -0.000001 5.044996 -1.291870
					}
				}
			}
		}
	}
	JOINT LeftHip
	{
		OFFSET -9.469263 0.004641 0.045487
		CHANNELS 6 Xposition Yposition Zposition Yrotation Xrotation Zrotation
		JOINT LeftKnee
		{
			OFFSET 0.000000 0.002666 -40.478676
			CHANNELS 6 Xposition Yposition Zposition Yrotation Xrotation Zrotation
			JOINT LeftAnkle
			{
				OFFSET 0.000000 0.049110 -35.224068
				CHANNELS 6 Xposition Yposition Zposition Yrotation Xrotation Zrotation
				JOINT LeftToe
				{
					OFFSET -0.000001 12.539530 -6.151390
					CHANNELS 6 Xposition Yposition Zposition Yrotation Xrotation Zrotation
					End Site
					{
						OFFSET -0.000001 5.044996 -1.291870
					}
				}
			}
		}
	}
}
MOTION
Frames: 4
Frame Time: 0.016667
11.312608 6.374538 83.082993 -7.174985 -3.857029 -112.426874 -0.000000 -0.009281 11.569089 0.251131 -3.844220 -1.367194 -0.000001 0.016864 9.269636 0.100766 -1.707793 -0.613324 0.000000 0.000000 8.374476 0.100766 -1.707792 -0.613325 0.000000 0.000001 8.374487 0.073854 -1.280947 -0.459678 -0.000001 0.000003 12.152555 0.214456 -18.981772 0.021230 -0.000001 0.040102 7.802318 0.399728 0.933705 0.107694 2.894403 0.000001 6.791379 2.546950 -4.295161 2.804269 13.574688 0.000000 0.000003 65.288139 -18.846795 47.292390 23.923903 0.000014 -0.000013 9.372520 -31.751398 61.026046 19.846716 0.012757 -0.000008 -60.379521 26.285589 26.583183 -2.894405 0.000001 6.791373 -10.576536 -3.534949 -4.640269 -13.574681 -0.000001 -0.000002 -60.493312 -19.386148 -46.289848 -23.923910 0.000004 0.000002 -10.445513 -29.808534 -30.577111 -19.846710 0.012756 0.000006 61.897578 16.906552 -44.768618 9.469263 0.004645 0.045473 0.318635 -10.776120 -1.853239 -0.000021 0.002663 -40.478779 0.041620 -2.399707 0.433425 0.000013 0.049100 -35.223824 1.070492 5.143631 -0.187384 -0.000000 12.539526 -6.151398 0.010241 -0.010142 -0.003730 -9.469263 0.004644 0.045480 -0.138550 -11.299771 0.669763 -0.000091 0.002666 -40.478691 0.560817 -0.682435 1.951276 0.000049 0.049107 -35.223881 -0.456153 4.100008 -1.094462 -0.000002 12.539532 -6.151392 -0.021607 -0.028461 0.003348 
11.318634 6.354699 83.083412 -7.198114 -3.856338 -112.401384 0.000000 -0.009281 11.569114 0.274724 -3.818096 -1.395949 0.000001 0.016863 9.269637 0.110118 -1.696592 -0.626695 0.000001 -0.000001 8.374495 0.110118 -1.696592 -0.626695 -0.000001 -0.000001 8.374488 0.080843 -1.272558 -0.469679 0.000000 0.000000 12.152563 0.209151 -18.858586 0.026163 -0.000001 0.040101 7.802333 0.391866 1.162485 0.115420 2.894404 0.000000 6.791374 2.484147 -4.311399 2.865650 13.574680 0.000000 -0.000004 65.179594 -19.106138 47.492610 23.923906 0.000012 -0.000008 11.623704 -30.699569 59.445711 19.846722 0.012756 0.000002 -60.454810 25.775939 25.375548 -2.894403 0.000000 6.791374 -10.595573 -3.504801 -4.635136 -13.574684 -0.000002 0.000003 -60.219667 -19.700769 -46.444026 -23.923912 -0.000005 -0.000003 -11.371602 -29.005911 -29.869486 -19.846710 0.012753 -0.000007 61.575890 16.927480 -42.962006 9.469264 0.004643 0.045495 0.325181 -10.801294 -1.833189 -0.000020 0.002663 -40.478786 0.045319 -2.417071 0.416362 0.000015 0.049096 -35.223827 1.053837 5.161140 -0.215722 0.000001 12.539529 -6.151392 0.008733 -0.005558 -0.002960 -9.469263 0.004642 0.045490 -0.131879 -11.327245 0.662924 -0.000089 0.002664 -40.478699 0.563049 -0.684238 1.945826 0.000050 0.049105 -35.223885 -0.466130 4.105029 -1.112459 -0.000002 12.539531 -6.151393 -0.020442 -0.025040 0.004218 
11.326433 6.332049 83.082512 -7.221729 -3.855389 -112.372342 -0.000000 -0.009284 11.569098 0.298041 -3.792578 -1.426784 -0.000000 0.016861 9.269633 0.119702 -1.684991 -0.640437 0.000001 0.000000 8.374477 0.119702 -1.684992 -0.640436 -0.000001 0.000001 8.374505 0.088003 -1.263871 -0.479963 0.000001 0.000001 12.152548 0.200541 -18.738795 0.029773 0.000002 0.040099 7.802327 0.377512 1.384958 0.119617 2.894405 0.000000 6.791361 2.435982 -4.305701 2.927456 13.574682 0.000001 0.000007 65.082400 -19.250876 47.716337 23.923899 0.000006 -0.000002 13.955110 -29.741717 57.954531 19.846710 0.012768 0.000006 -60.476722 25.340379 24.428858 -2.894403 -0.000001 6.791367 -10.645798 -3.458586 -4.628302 -13.574683 -0.000003 0.000003 -59.964976 -19.925931 -46.606069 -23.923910 0.000001 0.000002 -12.482417 -28.173733 -29.234555 -19.846714 0.012759 0.000010 61.098282 16.792001 -40.946209 9.469262 0.004641 0.045479 0.334516 -10.835259 -1.842019 -0.000020 0.002664 -40.478786 0.045996 -2.422027 0.427200 0.000016 0.049095 -35.223827 1.035273 5.177956 -0.247873 -0.000001 12.539527 -6.151396 0.008770 -0.004365 -0.001825 -9.469263 0.004641 0.045479 -0.126475 -11.357175 0.654817 -0.000091 0.002665 -40.478710 0.568725 -0.684270 1.938565 0.000050 0.049105 -35.223881 -0.477070 4.113262 -1.123937 -0.000000 12.539534 -6.151395 -0.020336 -0.024469 0.003979 
11.335168 6.309709 83.079506 -7.240961 -3.852634 -112.349263 0.000001 -0.009284 11.569098 0.312446 -3.773145 -1.449526 0.000000 0.016864 9.269638 0.125960 -1.675998 -0.650314 0.000001 -0.000002 8.374486 0.125960 -1.675997 -0.650315 -0.000001 0.000000 8.374505 0.092680 -1.257135 -0.487353 0.000001 0.000002 12.152549 0.198818 -18.607723 0.029121 0.000001 0.040094 7.802328 0.374434 1.628385 0.118275 2.894405 -0.000000 6.791379 2.407850 -4.274856 2.963817 13.574685 -0.000002 -0.000002 64.906454 -19.344060 47.984763 23.923899 0.000006 0.000003 16.906487 -28.693389 56.431682 19.846720 0.012759 0.000013 -60.481817 25.044746 23.387959 -2.894402 -0.000002 6.791376 -10.693287 -3.402024 -4.638280 -13.574684 -0.000001 0.000002 -59.701946 -19.982755 -46.757682 -23.923897 0.000003 -0.000000 -13.737040 -27.549252 -28.749694 -19.846720 0.012758 0.000010 60.566443 16.638590 -38.690283 9.469264 0.004642 0.045474 0.342406 -10.869420 -1.859725 -0.000021 0.002664 -40.478802 0.046557 -2.417336 0.440592 0.000017 0.049096 -35.223827 1.014724 5.194141 -0.267004 -0.000001 12.539529 -6.151387 0.011299 -0.007350 -0.001614 -9.469263 0.004640 0.045475 -0.127624 -11.382180 0.645102 -0.000090 0.002664 -40.478706 0.582814 -0.688286 1.932922 0.000050 0.049102 -35.223877 -0.486630 4.129172 -1.117339 -0.000003 12.539533 -6.151386 -0.023757 -0.027275 0.002938 
